<?xml version="1.0" encoding="utf-8"?>
<!-- Generator: Adobe Illustrator 16.0.0, SVG Export Plug-In . SVG Version: 6.00 Build 0)  -->
<!DOCTYPE svg PUBLIC "-//W3C//DTD SVG 1.1//EN" "http://www.w3.org/Graphics/SVG/1.1/DTD/svg11.dtd">
<svg version="1.1" id="icons" xmlns="http://www.w3.org/2000/svg" xmlns:xlink="http://www.w3.org/1999/xlink" x="0px" y="0px"
	 width="64px" height="64px" viewBox="0 0 64 64" enable-background="new 0 0 64 64" xml:space="preserve">
<g>
	<path fill="#EAC6BB" d="M11,41.989c2.391,0,4.54,1.05,6,2.71v0.29v0.01c0,2.79-1.641,5.2-4,6.31c-0.91,0.44-1.93,0.681-3,0.681
		s-2.09-0.24-3-0.681c-2.359-1.109-4-3.52-4-6.31v-0.01v-3c1.66,0,3-1.34,3-3c0,1.66,1.34,3,3,3H11z"/>
	<path fill="#545C66" d="M39,12.089v5.91c0,1.11-0.891,2-2,2H27c-1.1,0-2-0.89-2-2v-5.91l7,2.91L39,12.089z"/>
	<polygon fill="#656D78" points="39,12.089 32,14.999 25,12.089 20,9.999 32,4.999 44,9.999 	"/>
	<path fill="#656D78" d="M41,56.989v3.01h-9l3-6h3v-0.01C39.66,53.989,41,55.339,41,56.989z"/>
	<path fill="#EAC6BB" d="M39,41.999v2.99v0.01c0,2.79-1.641,5.2-4,6.31c-0.91,0.44-1.93,0.681-3,0.681s-2.09-0.24-3-0.681
		c-2.359-1.109-4-3.52-4-6.31v-0.01v-2.971l2-2.01v-0.02c0,0,2.221,1.02,4.939,1.02c2.541,0,4.761-0.89,5.031-1L37,40.019L39,41.999
		z"/>
	<path fill="#D3B1A9" d="M37,40.019L37,40.019l-0.001,4.971v0.01c0,2.79-1.64,5.2-4,6.31c-0.621,0.301-1.296,0.499-1.999,0.601
		c0.328,0.048,0.66,0.08,1,0.08c1.07,0,2.09-0.24,3-0.681c2.359-1.109,4-3.52,4-6.31v-0.01v-2.99L37,40.019z"/>
	<path fill="#D3B1A9" d="M15,40.019L15,40.019l-0.001,4.971v0.01c0,2.79-1.64,5.2-4,6.31C10.378,51.609,9.703,51.808,9,51.909
		c0.328,0.048,0.66,0.08,1,0.08c1.07,0,2.09-0.24,3-0.681c2.359-1.109,4-3.52,4-6.31v-0.01v-2.99L15,40.019z"/>
	<path fill="#656D78" d="M51,53.999l3,6h-9v-3.01c0-1.65,1.34-3,3-3v0.01H51z"/>
	<path fill="#FFCE54" d="M58.99,35.409L57,39.469v0.011c-1.87,0.38-4.189,2.329-10,1.649c-0.32-0.04-0.66-0.09-1-0.14v-0.49
		c0-4.14,3.359-7.5,7.5-7.5C55.67,32.999,57.63,33.929,58.99,35.409z"/>
	<path fill="#EAC6BB" d="M61,44.989v0.01c0,2.79-1.641,5.2-4,6.31c-0.91,0.44-1.93,0.681-3,0.681s-2.09-0.24-3-0.681
		c-2.359-1.109-4-3.52-4-6.31v-0.01v-3.86c5.811,0.68,8.13-1.27,10-1.649c1.24-0.261,2.279,0.149,4,2.39V44.989z"/>
	<path fill="#D3B1A9" d="M58.999,39.849v5.141v0.01c0,2.79-1.64,5.2-4,6.31c-0.619,0.3-1.291,0.498-1.993,0.6
		c0.326,0.048,0.656,0.081,0.994,0.081c1.07,0,2.09-0.24,3-0.681c2.359-1.109,4-3.52,4-6.31v-0.01v-3.12
		C60.221,40.854,59.581,40.218,58.999,39.849z"/>
	<path fill="#656D78" d="M63,56.989v3.01h-9l3-6h3v-0.01C61.66,53.989,63,55.339,63,56.989z"/>
	<path fill="#656D78" d="M29,53.999l3,6h-9v-3.01c0-1.65,1.34-3,3-3v0.01H29z"/>
	<path fill="#F5F7FA" d="M35,53.989v0.01l-1,0.99l-2-1l-2,1l-1-0.99v-0.01v-2.67v-0.011c0.91,0.44,1.93,0.681,3,0.681
		s2.09-0.24,3-0.681v0.011V53.989z"/>
	<polygon fill="#E6E9ED" points="34,54.989 35,53.999 32,59.999 29,53.999 30,54.989 32,53.989 	"/>
	<path fill="#F5F7FA" d="M57,51.319v2.67v0.01l-1,0.99l-2-1l-2,1l-1-0.99v-0.01v-2.67v-0.011c0.91,0.44,1.93,0.681,3,0.681
		s2.09-0.24,3-0.681V51.319z"/>
	<path fill="#656D78" d="M36.971,40.009c-0.271,0.11-2.49,1-5.031,1c-2.719,0-4.939-1.02-4.939-1.02v0.02l-2,2.01v-2.029
		c0-3.86,3.13-6.99,7-6.99s7,3.13,7,6.99v2.01l-2-1.98L36.971,40.009z"/>
	<g>
		<path fill="#545C66" d="M32,32.999c-0.341,0-0.673,0.032-1,0.079c3.393,0.485,5.999,3.391,5.999,6.911v0.029H37l2,1.98v-2.01
			C39,36.129,35.87,32.999,32,32.999z"/>
	</g>
	<polygon fill="#E6E9ED" points="56,54.989 57,53.999 54,59.999 51,53.999 52,54.989 54,53.989 	"/>
	<path fill="#F6BB42" d="M57,39.469l1.99-4.06c1.25,1.34,2.01,3.12,2.01,5.09v1.37c-1.721-2.24-2.76-2.65-4-2.39V39.469z"/>
	<path fill="#E9573F" d="M6,33.989v5c0,1.66-1.34,3-3,3v-5C3,35.329,4.34,33.989,6,33.989z"/>
	<path fill="#656D78" d="M7,53.999l3,6H1v-3.01c0-1.65,1.34-3,3-3v0.01H7z"/>
	<path fill="#F5F7FA" d="M13,53.989v0.01l-1,0.99l-2-1l-2,1l-1-0.99v-0.01v-2.67v-0.011c0.91,0.44,1.93,0.681,3,0.681
		s2.09-0.24,3-0.681v0.011V53.989z"/>
	<path fill="#656D78" d="M19,56.989v3.01h-9l3-6h3v-0.01C17.66,53.989,19,55.339,19,56.989z"/>
	<path fill="#545C66" d="M16,53.989v0.01h-2.904c1.613,0.053,2.902,1.373,2.902,2.99v3.01H19v-3.01
		C19,55.339,17.66,53.989,16,53.989z"/>
	<path fill="#545C66" d="M38,53.989v0.01h-2.904c1.613,0.053,2.902,1.373,2.902,2.99v3.01H41v-3.01
		C41,55.339,39.66,53.989,38,53.989z"/>
	<path fill="#545C66" d="M60,53.989v0.01h-2.904c1.613,0.053,2.902,1.373,2.902,2.99v3.01H63v-3.01
		C63,55.339,61.66,53.989,60,53.989z"/>
	<polygon fill="#E6E9ED" points="12,54.989 13,53.999 10,59.999 7,53.999 8,54.989 10,53.989 	"/>
	<path fill="#FC6E51" d="M19,39.989v10c0-2.03-0.75-3.88-2-5.29c-1.46-1.66-3.609-2.71-6-2.71H9c-1.66,0-3-1.34-3-3v-5
		c1.37-1.101,3.109-2,5-2C15.42,31.989,19,35.569,19,39.989z"/>
	<path fill="#E9573F" d="M11,31.989c-0.315,0-0.624,0.033-0.93,0.08c3.912,0.524,6.929,3.864,6.929,7.92v4.709
		C17,44.698,17,44.699,17,44.699c1.25,1.41,2,3.26,2,5.29v-10C19,35.569,15.42,31.989,11,31.989z"/>
	<g>
		<path fill="#CCD1D9" d="M32,28.997c-0.553,0-1-0.447-1-1v-4.002c0-0.553,0.447-1,1-1s1,0.447,1,1v4.002
			C33,28.55,32.553,28.997,32,28.997z"/>
	</g>
	<g>
		<path fill="#CCD1D9" d="M54,28.997c-0.553,0-1-0.447-1-1V16.001c0-0.553,0.447-1,1-1s1,0.447,1,1v11.996
			C55,28.55,54.553,28.997,54,28.997z"/>
	</g>
	<g>
		<path fill="#CCD1D9" d="M54,17.001H42.999c-0.553,0-1-0.447-1-1s0.447-1,1-1H54c0.553,0,1,0.447,1,1S54.553,17.001,54,17.001z"/>
	</g>
	<g>
		<path fill="#CCD1D9" d="M10,28.997c-0.553,0-1-0.447-1-1V16.001c0-0.553,0.447-1,1-1s1,0.447,1,1v11.996
			C11,28.55,10.553,28.997,10,28.997z"/>
	</g>
	<g>
		<path fill="#CCD1D9" d="M21.001,17.001H10c-0.553,0-1-0.447-1-1s0.447-1,1-1h11.001c0.553,0,1,0.447,1,1
			S21.554,17.001,21.001,17.001z"/>
	</g>
	<g>
		<path fill="#545C66" d="M25.002,18.999c-0.553,0-1-0.447-1-1v-5.914c0-0.553,0.447-1,1-1s1,0.447,1,1v5.914
			C26.002,18.552,25.555,18.999,25.002,18.999z"/>
	</g>
	<g>
		<path fill="#545C66" d="M37,21.001h-9.996c-0.553,0-1-0.447-1-1s0.447-1,1-1H37c0.553,0,1,0.447,1,1S37.553,21.001,37,21.001z"/>
	</g>
	<g>
		<path fill="#545C66" d="M39.002,18.999c-0.553,0-1-0.447-1-1v-5.914c0-0.553,0.447-1,1-1s1,0.447,1,1v5.914
			C40.002,18.552,39.555,18.999,39.002,18.999z"/>
	</g>
	<g>
		<path fill="#545C66" d="M27.004,21.001c-1.655,0-3.002-1.347-3.002-3.002c0-0.553,0.447-1,1-1s1,0.447,1,1
			s0.449,1.002,1.002,1.002s1,0.447,1,1S27.557,21.001,27.004,21.001z"/>
	</g>
	<g>
		<path fill="#545C66" d="M37,21.001c-0.553,0-1-0.447-1-1s0.447-1,1-1s1.002-0.449,1.002-1.002s0.447-1,1-1s1,0.447,1,1
			C40.002,19.654,38.655,21.001,37,21.001z"/>
	</g>
	<g>
		<path fill="#656D78" d="M32.002,16.003c-0.131,0-0.262-0.025-0.385-0.077l-12-5.002c-0.373-0.155-0.615-0.52-0.615-0.923
			s0.243-0.768,0.615-0.923l12-5c0.246-0.104,0.523-0.104,0.77,0l12,5c0.372,0.155,0.615,0.52,0.615,0.923s-0.242,0.768-0.615,0.923
			l-12,5.002C32.264,15.978,32.133,16.003,32.002,16.003z M22.602,10.001l9.4,3.919l9.4-3.919l-9.4-3.917L22.602,10.001z"/>
	</g>
</g>
</svg>
